<svg width="21" height="22" viewBox="0 0 21 22" fill="none" xmlns="http://www.w3.org/2000/svg">
<path d="M18 9.33301C18 15.1663 10.5 20.1663 10.5 20.1663C10.5 20.1663 3 15.1663 3 9.33301C3 7.34388 3.79018 5.43623 5.1967 4.02971C6.60322 2.62318 8.51088 1.83301 10.5 1.83301C12.4891 1.83301 14.3968 2.62318 15.8033 4.02971C17.2098 5.43623 18 7.34388 18 9.33301Z" stroke="white" stroke-width="2" stroke-linecap="round" stroke-linejoin="round"/>
<path d="M10.5 11.833C11.8807 11.833 13 10.7137 13 9.33301C13 7.9523 11.8807 6.83301 10.5 6.83301C9.11929 6.83301 8 7.9523 8 9.33301C8 10.7137 9.11929 11.833 10.5 11.833Z" stroke="white" stroke-width="2" stroke-linecap="round" stroke-linejoin="round"/>
</svg>

