<svg width="32" height="32" viewBox="0 0 32 32" fill="none" xmlns="http://www.w3.org/2000/svg">
<path d="M15.8697 18.9916C17.4502 18.9916 18.7314 17.7103 18.7314 16.1298C18.7314 14.5493 17.4502 13.2681 15.8697 13.2681C14.2892 13.2681 13.0079 14.5493 13.0079 16.1298C13.0079 17.7103 14.2892 18.9916 15.8697 18.9916Z" fill="#121212"/>
<path d="M19.4469 9.10559H12.2926C11.2519 9.10559 10.3414 9.43079 9.75602 10.0161C9.17066 10.6015 8.84546 11.5121 8.84546 12.5527V19.7071C8.84546 20.7477 9.17066 21.6583 9.82106 22.3087C10.4715 22.894 11.317 23.2192 12.3576 23.2192H19.4469C20.4876 23.2192 21.3981 22.894 21.9835 22.3087C22.6339 21.7233 22.9591 20.8127 22.9591 19.7721V12.6177C22.9591 11.5771 22.6339 10.7316 22.0485 10.0812C21.3981 9.43079 20.5526 9.10559 19.4469 9.10559ZM15.8698 20.5526C13.3982 20.5526 11.447 18.5364 11.447 16.1299C11.447 13.6584 13.4633 11.7072 15.8698 11.7072C18.2762 11.7072 20.3575 13.6584 20.3575 16.1299C20.3575 18.6014 18.3413 20.5526 15.8698 20.5526ZM20.4876 12.5527C19.9022 12.5527 19.4469 12.0974 19.4469 11.5121C19.4469 10.9267 19.9022 10.4714 20.4876 10.4714C21.0729 10.4714 21.5282 10.9267 21.5282 11.5121C21.5282 12.0974 21.0729 12.5527 20.4876 12.5527Z" fill="#121212"/>
<path d="M15.9998 0C7.15437 0 0 7.15437 0 15.9998C0 24.8452 7.15437 31.9996 15.9998 31.9996C24.8452 31.9996 31.9996 24.8452 31.9996 15.9998C32.0646 7.15437 24.8452 0 15.9998 0ZM24.52 19.7721C24.52 21.268 23.9997 22.5688 23.0891 23.4794C22.1786 24.3899 20.8778 24.8452 19.4469 24.8452H12.3576C10.9267 24.8452 9.62589 24.3899 8.71533 23.4794C7.73973 22.5688 7.28445 21.268 7.28445 19.7721V12.6177C7.28445 9.62589 9.30069 7.54461 12.3576 7.54461H19.5119C21.0078 7.54461 22.2436 8.06493 23.1542 8.97549C24.0647 9.88604 24.52 11.1218 24.52 12.6177V19.7721Z" fill="#121212"/>
</svg>

