<svg width="24" height="24" viewBox="0 0 24 24" fill="none" xmlns="http://www.w3.org/2000/svg">
<path d="M9.15077 13.522L9.98687 15.0374C10.013 15.0897 10.0391 15.1158 10.0914 15.1419L11.6068 15.978C11.8159 16.0825 11.8159 16.37 11.6068 16.4745L10.0914 17.3106C10.0391 17.3367 10.013 17.3628 9.98687 17.4151L9.15077 18.9305C9.04625 19.1395 8.75885 19.1395 8.65433 18.9305L7.81823 17.4151C7.7921 17.3628 7.76597 17.3367 7.71371 17.3106L6.19827 16.4745C5.98925 16.37 5.98925 16.0825 6.19827 15.978L7.71371 15.1419C7.76597 15.1158 7.7921 15.0897 7.81823 15.0374L8.65433 13.522C8.75885 13.3129 9.04625 13.3129 9.15077 13.522Z" fill="black"/>
<path d="M15.0035 19.2702L15.5522 20.2892C15.5784 20.3153 15.6045 20.3414 15.6306 20.3676L16.6496 20.9163C16.7803 20.9947 16.7803 21.1775 16.6496 21.2559L15.6306 21.8046C15.6045 21.8308 15.5784 21.8569 15.5522 21.883L15.0035 22.902C14.9251 23.0327 14.7423 23.0327 14.6639 22.902L14.1152 21.883C14.089 21.8569 14.0629 21.8308 14.0368 21.8046L13.0178 21.2559C12.8871 21.1775 12.8871 20.9947 13.0178 20.9163L14.0368 20.3676C14.0629 20.3414 14.089 20.3153 14.1152 20.2892L14.6639 19.2702C14.7423 19.1395 14.9251 19.1395 15.0035 19.2702Z" fill="black"/>
<path d="M13.0962 1.29394L14.7684 4.32482C14.8206 4.42934 14.899 4.50772 15.0035 4.55998L18.0344 6.23218C18.4263 6.44121 18.4263 7.01604 18.0344 7.22506L14.9774 8.87114C14.8729 8.9234 14.7945 9.00178 14.7422 9.10629L13.07 12.1372C12.861 12.5291 12.2862 12.5291 12.0771 12.1372L10.4049 9.10629C10.3527 9.00178 10.2743 8.9234 10.1698 8.87114L7.13891 7.19893C6.74698 6.98991 6.74698 6.41508 7.13891 6.20605L10.1698 4.53385C10.2743 4.48159 10.3527 4.40321 10.4049 4.29869L12.1033 1.29394C12.3123 0.902019 12.8871 0.902019 13.0962 1.29394Z" fill="black"/>
</svg>

