<svg width="32" height="32" viewBox="0 0 32 32" fill="none" xmlns="http://www.w3.org/2000/svg">
<g clip-path="url(#clip0_252_161)">
<path d="M16.0006 -6.10352e-05C7.16371 -6.10352e-05 -3.05176e-05 7.16498 -3.05176e-05 16.0006C-3.05176e-05 24.8375 7.16371 31.9999 16.0006 31.9999C24.8375 31.9999 32 24.8375 32 16.0006C32 7.16498 24.8369 -6.10352e-05 16.0006 -6.10352e-05ZM24.0604 12.7745C24.0688 12.9473 24.0721 13.1208 24.0721 13.2962C24.0721 18.625 20.0162 24.7686 12.5997 24.7686C10.3229 24.7686 8.2027 24.1013 6.41842 22.9577C6.73421 22.9947 7.05455 23.0136 7.38009 23.0136C9.26962 23.0136 11.0084 22.369 12.3879 21.2878C10.6238 21.2546 9.13512 20.0883 8.6218 18.4866C8.86742 18.5347 9.12018 18.5587 9.38009 18.5587C9.74786 18.5587 10.1039 18.5107 10.4425 18.4177C8.59711 18.0474 7.20725 16.4164 7.20725 14.4645C7.20725 14.447 7.20725 14.4301 7.2079 14.4125C7.75111 14.7147 8.37294 14.896 9.03441 14.9174C7.95189 14.1929 7.24039 12.9603 7.24039 11.5607C7.24039 10.8219 7.43922 10.1286 7.78619 9.5334C9.77515 11.9726 12.7466 13.5782 16.0981 13.7459C16.0292 13.4515 15.9935 13.1429 15.9935 12.8271C15.9935 10.601 17.7985 8.79526 20.026 8.79526C21.1858 8.79526 22.2332 9.28519 22.9688 10.0682C23.8876 9.88818 24.7505 9.5516 25.5295 9.08961C25.2274 10.0318 24.5887 10.8219 23.7557 11.3203C24.5724 11.2228 25.3495 11.0058 26.0721 10.6854C25.5328 11.4957 24.8486 12.2059 24.0604 12.7745Z" fill="#121212"/>
</g>
<defs>
<clipPath id="clip0_252_161">
<rect width="32" height="32" fill="white"/>
</clipPath>
</defs>
</svg>

