<svg width="32" height="32" viewBox="0 0 32 32" fill="none" xmlns="http://www.w3.org/2000/svg">
<path fill-rule="evenodd" clip-rule="evenodd" d="M0 16C0 24.8352 7.1648 32 16 32C24.8352 32 32 24.8352 32 16C32 7.1648 24.8352 0 16 0C7.1648 0 0 7.1648 0 16ZM24.304 8.96001C25.2192 9.20641 25.9392 9.92961 26.1824 10.8512C26.624 12.5184 26.624 16 26.624 16C26.624 16 26.624 19.4816 26.1792 21.1488C25.936 22.0704 25.216 22.7936 24.3008 23.04C22.6464 23.488 16 23.488 16 23.488C16 23.488 9.35679 23.488 7.69919 23.04C6.78399 22.7936 6.06399 22.0704 5.82079 21.1488C5.37599 19.4816 5.37599 16 5.37599 16C5.37599 16 5.37599 12.5184 5.82399 10.8512C6.06719 9.92961 6.78719 9.20641 7.70239 8.96001C9.35679 8.51201 16.0032 8.51201 16.0032 8.51201C16.0032 8.51201 22.6464 8.51201 24.304 8.96001ZM19.3792 16L13.8272 12.8416V19.1584L19.3792 16Z" fill="#121212"/>
</svg>

